HIERARCHY
ROOT SpineBase
{
  OFFSET 0.000000 0.000000 0.000000
  CHANNELS 6 Xposition Yposition Zposition Zrotation Xrotation Yrotation
  JOINT SpineMid
  {
    OFFSET 0.000000 31.848673 0.000000
    CHANNELS 3 Zrotation Xrotation Yrotation
    JOINT SpineShoulder
    {
      OFFSET 0.102873 23.674213 -0.744912
      CHANNELS 3 Zrotation Xrotation Yrotation
      JOINT Neck
      {
        OFFSET 0.070164 7.839197 -0.577178
        CHANNELS 3 Zrotation Xrotation Yrotation
        JOINT Head
        {
          OFFSET -5.897378 12.889425 0.397058
          CHANNELS 3 Zrotation Xrotation Yrotation
          End Site
          {
            OFFSET 0 0 0
          }
        }
      }
      JOINT ShoulderLeft
      {
        OFFSET -15.955814 -4.672588 9.184159
        CHANNELS 3 Zrotation Xrotation Yrotation
        JOINT ElbowLeft
        {
          OFFSET -2.293645 -27.820791 0.850906
          CHANNELS 3 Zrotation Xrotation Yrotation
          JOINT WristLeft
          {
            OFFSET -0.402800 -23.439986 -3.230244
            CHANNELS 3 Zrotation Xrotation Yrotation
            JOINT HandLeft
            {
              OFFSET -1.069179 -8.066059 0.429949
              CHANNELS 3 Zrotation Xrotation Yrotation
              JOINT HandTipLeft
              {
                OFFSET 0.899126 -7.073761 -0.245718
                CHANNELS 3 Zrotation Xrotation Yrotation
                End Site
                {
                  OFFSET 0 0 0
                }
              }
              JOINT ThumbLeft
              {
                OFFSET -1.819865 -3.058622 -2.379950
                CHANNELS 3 Zrotation Xrotation Yrotation
                End Site
                {
                  OFFSET 0 0 0
                }
              }
            }
          }
        }
      }
      JOINT ShoulderRight
      {
        OFFSET 12.191169 -3.776025 -9.091444
        CHANNELS 3 Zrotation Xrotation Yrotation
        JOINT ElbowRight
        {
          OFFSET 8.781054 -26.443547 -5.348768
          CHANNELS 3 Zrotation Xrotation Yrotation
          JOINT WristRight
          {
            OFFSET 2.114755 -21.802047 -5.750969
            CHANNELS 3 Zrotation Xrotation Yrotation
            JOINT HandRight
            {
              OFFSET -0.383256 -5.880269 0.091973
              CHANNELS 3 Zrotation Xrotation Yrotation
              JOINT HandTipRight
              {
                OFFSET -0.342557 -8.418955 0.342156
                CHANNELS 3 Zrotation Xrotation Yrotation
                End Site
                {
                  OFFSET 0 0 0
                }
              }
              JOINT ThumbRight
              {
                OFFSET -3.794090 1.582294 0.782646
                CHANNELS 3 Zrotation Xrotation Yrotation
                End Site
                {
                  OFFSET 0 0 0
                }
              }
            }
          }
        }
      }
    }
  }
  JOINT HipLeft
  {
    OFFSET -6.318901 -0.041258 -0.184571
    CHANNELS 3 Zrotation Xrotation Yrotation
    JOINT KneeLeft
    {
      OFFSET 1.988649 -37.985193 3.905756
      CHANNELS 3 Zrotation Xrotation Yrotation
      JOINT AnkleLeft
      {
        OFFSET 5.327813 -35.844098 7.229052
        CHANNELS 3 Zrotation Xrotation Yrotation
        JOINT FootLeft
        {
          OFFSET -1.655436 -8.801270 -3.717951
          CHANNELS 3 Zrotation Xrotation Yrotation
          End Site
          {
            OFFSET 0 0 0
          }
        }
      }
    }
  }
  JOINT HipRight
  {
    OFFSET 6.654292 1.955249 -6.769228
    CHANNELS 3 Zrotation Xrotation Yrotation
    JOINT KneeRight
    {
      OFFSET 8.495607 -35.797214 -5.608568
      CHANNELS 3 Zrotation Xrotation Yrotation
      JOINT AnkleRight
      {
        OFFSET 6.186155 -36.810993 4.979055
        CHANNELS 3 Zrotation Xrotation Yrotation
        JOINT FootRight
        {
          OFFSET -1.103862 -7.960628 -6.295721
          CHANNELS 3 Zrotation Xrotation Yrotation
          End Site
          {
            OFFSET 0 0 0
          }
        }
      }
    }
  }
}
MOTION
Frames: 9
Frame Time: 0.033333
-15.086255 132.255413 333.640910 -0.000000 0.000000 26.910465 0.000000 0.000000 -26.910465 -0.000000 0.000000 0.000000 -0.000000 0.000000 0.000000 0.000000 0.000000 0.000000 -0.000000 0.000000 0.000000 -0.000000 0.000000 0.000000 -0.000000 0.000000 0.000000 -0.000000 0.000000 0.000000 0.000000 0.000000 0.000000 0.000000 0.000000 0.000000 -0.000000 0.000000 0.000000 -0.000000 0.000000 0.000000 -0.000000 0.000000 0.000000 -0.000000 0.000000 0.000000 0.000000 0.000000 0.000000 0.000000 0.000000 0.000000 0.000000 0.000000 -26.910465 -0.000000 0.000000 0.000000 -0.000000 0.000000 0.000000 0.000000 0.000000 0.000000 0.000000 0.000000 -26.910465 -0.000000 0.000000 0.000000 -0.000000 0.000000 0.000000 0.000000 0.000000 0.000000
-15.057612 132.265850 333.656410 -0.024802 0.026885 26.764740 0.010038 -0.035174 -26.764732 -0.000000 0.000000 0.000000 -0.000000 0.000000 0.000000 0.000000 0.000000 0.000000 -0.000000 0.000000 0.000000 -0.000000 0.000000 0.000000 2.250169 -0.268872 0.161277 -2.249429 0.274996 -0.150598 0.000000 0.000000 0.000000 0.000000 0.000000 0.000000 -0.000000 0.000000 0.000000 -0.000000 0.000000 0.000000 -0.189885 5.959289 -0.382112 -0.082818 -4.875181 0.317856 0.000000 0.000000 0.000000 0.000000 0.000000 0.000000 0.010038 -0.035174 -26.764732 -0.000000 0.000000 0.000000 -4.454032 9.782154 0.401933 0.000000 0.000000 0.000000 0.010038 -0.035174 -26.764732 -0.000000 0.000000 0.000000 -0.000000 0.000000 0.000000 0.000000 0.000000 0.000000
-15.037120 132.271611 333.661482 -0.029937 0.039271 26.682305 0.009115 -0.048532 -26.682291 -0.000000 0.000000 0.000000 -0.000000 0.000000 0.000000 0.000000 0.000000 0.000000 -0.000000 0.000000 0.000000 0.380157 -1.045233 -0.031000 3.691318 0.727474 0.235390 -3.400834 1.236917 -0.166028 0.000000 0.000000 0.000000 0.000000 0.000000 0.000000 -0.000000 0.000000 0.000000 -0.000000 0.000000 0.000000 -0.478266 11.220571 -0.695035 0.121827 -9.183203 0.612252 0.000000 0.000000 0.000000 0.000000 0.000000 0.000000 0.009115 -0.048532 -26.682291 -0.000000 0.000000 0.000000 -7.969454 17.164481 1.229313 0.000000 0.000000 0.000000 0.009115 -0.048532 -26.682291 -0.000000 0.000000 0.000000 -0.000000 0.000000 0.000000 0.000000 0.000000 0.000000
-15.024781 132.272695 333.656127 -0.015418 0.037168 26.663071 -0.002901 -0.040134 -26.663067 -0.000000 0.000000 0.000000 -0.000000 0.000000 0.000000 0.000000 0.000000 0.000000 -0.000000 0.000000 0.000000 0.575692 -1.442890 -0.047377 4.828913 1.313483 0.239029 -4.254088 1.483196 -0.186839 0.000000 0.000000 0.000000 0.000000 0.000000 0.000000 -0.000000 0.000000 0.000000 -0.000000 0.000000 0.000000 -0.886501 15.482649 -0.910103 0.610476 -12.618136 0.917279 0.000000 0.000000 0.000000 0.000000 0.000000 0.000000 -0.002901 -0.040134 -26.663067 -0.000000 0.000000 0.000000 -10.488240 22.171023 2.073100 0.000000 0.000000 0.000000 -0.002901 -0.040134 -26.663067 -0.000000 0.000000 0.000000 0.013051 -0.951781 0.122576 0.000000 0.000000 0.000000
-15.020594 132.269103 333.640343 0.018748 0.020583 26.707000 -0.025998 -0.009961 -26.707005 -0.000000 0.000000 0.000000 -0.000000 0.000000 0.000000 0.000000 0.000000 0.000000 -0.104210 -0.939443 0.073387 0.878529 -0.824468 -0.152633 5.418642 2.077605 0.171402 -4.461460 1.456083 -0.161322 0.000000 0.000000 0.000000 0.000000 0.000000 0.000000 -0.000000 0.000000 0.000000 -0.000000 0.000000 0.000000 -1.428482 18.554894 -1.010749 1.373842 -14.986895 1.249952 0.000000 0.000000 0.000000 0.000000 0.000000 0.000000 -0.025998 -0.009961 -26.707005 -0.000000 0.000000 0.000000 -11.993224 25.093617 2.663468 0.000000 0.000000 0.000000 -0.025998 -0.009961 -26.707005 -0.000000 0.000000 0.000000 0.110923 -1.248322 0.087354 0.000000 0.000000 0.000000
-15.024559 132.260835 333.614131 0.072555 -0.010480 26.814103 -0.060026 0.042082 -26.814074 -0.000000 0.000000 0.000000 -0.000000 0.000000 0.000000 0.000000 0.000000 0.000000 -0.051346 -1.142524 0.092083 1.030268 -0.867100 -0.196353 5.407350 3.042584 0.040888 -3.961742 1.140267 -0.073336 0.000000 0.000000 0.000000 0.000000 0.000000 0.000000 -0.000000 0.000000 0.000000 -0.000000 0.000000 0.000000 -2.105018 20.346617 -0.996964 2.395930 -16.199037 1.604190 0.000000 0.000000 0.000000 0.000000 0.000000 0.000000 -0.060026 0.042082 -26.814074 -0.000000 0.000000 0.000000 -12.485708 26.189578 2.857377 0.000000 0.000000 0.000000 -0.060026 0.042082 -26.814074 -0.000000 0.000000 0.000000 0.255506 -1.534381 0.014286 0.000000 0.000000 0.000000
-15.033896 132.251423 333.574840 0.126506 -0.022864 26.925519 -0.102439 0.077671 -26.925424 -0.000000 0.000000 0.000000 1.012797 0.147904 0.035021 0.000000 0.000000 0.000000 0.078070 -1.376118 0.116746 1.146891 -0.938467 -0.249340 4.535967 4.510319 -0.173526 -2.871161 1.020479 0.211919 0.000000 0.000000 0.000000 0.000000 0.000000 0.000000 0.208607 0.763487 0.209539 -0.827672 -0.167642 0.003114 -1.705474 20.249344 -1.226601 3.550448 -16.455718 1.999411 0.000000 0.000000 0.000000 0.000000 0.000000 0.000000 -0.102439 0.077671 -26.925424 -0.000000 0.000000 0.000000 -11.102270 25.695350 2.089281 0.000000 0.000000 0.000000 -0.102439 0.077671 -26.925424 -0.000000 0.000000 0.000000 0.352599 -1.868896 -0.014120 0.000000 0.000000 0.000000
-15.047636 132.238082 333.521418 0.189989 -0.036302 27.166190 -0.152456 0.119041 -27.165972 -0.000000 0.000000 0.000000 1.441256 0.122461 0.010032 0.000000 0.000000 0.000000 0.117744 -1.428940 0.122846 1.389272 -0.971634 -0.293296 3.179192 6.990579 -0.548212 0.045615 -1.961814 0.614545 0.000000 0.000000 0.000000 0.000000 0.000000 0.000000 0.393475 0.928313 0.224868 -1.073779 -0.033287 0.028508 -2.801984 18.462408 -1.050264 5.885281 -14.220819 2.422398 0.000000 0.000000 0.000000 0.000000 0.000000 0.000000 -0.152456 0.119041 -27.165972 -0.000000 0.000000 0.000000 -9.741252 23.236316 1.542397 0.000000 0.000000 0.000000 -0.152456 0.119041 -27.165972 -0.000000 0.000000 0.000000 0.649832 -2.231796 -0.194916 0.000000 0.000000 0.000000
-15.067006 132.229829 333.456117 0.303873 -0.108935 27.476718 -0.219336 0.236849 -27.475976 0.837005 -0.249552 0.065678 0.926033 0.585859 0.024517 0.000000 0.000000 0.000000 -0.586588 -1.139331 0.062153 1.483445 -0.949927 -0.325798 0.412243 8.721183 -0.708719 3.517572 -3.468458 1.268787 0.000000 0.000000 0.000000 0.000000 0.000000 0.000000 -0.353043 1.492902 0.244712 -1.227491 0.021048 -0.009368 -3.486258 15.860712 -0.957153 6.640020 -10.994680 2.205373 0.000000 0.000000 0.000000 0.000000 0.000000 0.000000 -0.219336 0.236849 -27.475976 -0.000000 0.000000 0.000000 -7.639201 17.885150 0.967601 0.000000 0.000000 0.000000 -0.219336 0.236849 -27.475976 -0.000000 0.000000 0.000000 1.109157 -2.773330 -0.475461 0.000000 0.000000 0.000000
